<svg xmlns="http://www.w3.org/2000/svg" viewBox="0 0 32 32">
  <defs>
    <linearGradient id="g" x1="0" y1="0" x2="1" y2="1">
      <stop offset="0%" stop-color="#2dd4bf"/>
      <stop offset="100%" stop-color="#0d9488"/>
    </linearGradient>
  </defs>
  <rect width="32" height="32" rx="8" fill="url(#g)"/>
  <g fill="none" stroke="#fff" stroke-width="1.8" stroke-linecap="round" stroke-linejoin="round">
    <path d="M16 8.5c-1.6-1.6-4.4-1.3-5.6.6-1.8.1-3.1 1.6-3 3.4-1.4.9-1.7 2.9-.6 4.2-.6 1.7.5 3.5 2.3 3.9.5 1.6 2.3 2.5 3.9 1.9.8.9 2.2 1 3 .2V8.5Z"/>
    <path d="M16 8.5c1.6-1.6 4.4-1.3 5.6.6 1.8.1 3.1 1.6 3 3.4 1.4.9 1.7 2.9.6 4.2.6 1.7-.5 3.5-2.3 3.9-.5 1.6-2.3 2.5-3.9 1.9-.8.9-2.2 1-3 .2"/>
    <path d="M16 22.7V25"/>
  </g>
</svg>
